<svg xmlns="http://www.w3.org/2000/svg" viewBox="0 0 64 64">
  <defs>
    <linearGradient id="bg" x1="0" y1="0" x2="1" y2="1">
      <stop offset="0%" stop-color="#0052cc"/>
      <stop offset="100%" stop-color="#4c9aff"/>
    </linearGradient>
    <linearGradient id="card" x1="0" y1="0" x2="0" y2="1">
      <stop offset="0%" stop-color="#ffffff" stop-opacity="0.95"/>
      <stop offset="100%" stop-color="#cfe3ff" stop-opacity="0.95"/>
    </linearGradient>
  </defs>

  <rect x="4" y="4" width="56" height="56" rx="12" fill="url(#bg)"/>
  <rect x="15" y="16" width="34" height="32" rx="6" fill="url(#card)"/>
  <rect x="21" y="24" width="14" height="4" rx="2" fill="#0052cc"/>
  <rect x="21" y="32" width="22" height="4" rx="2" fill="#0065ff" opacity="0.9"/>
  <rect x="21" y="40" width="12" height="4" rx="2" fill="#3387ff" opacity="0.8"/>

  <path d="M33 14c7.5 3 11 8.1 11 14.5 0 6.1-3.8 11-9.7 13.2l-2.4-4.1c4.6-1.7 6.8-4.8 6.8-8.9 0-4.1-2.4-7.4-7.4-9.4L33 14z" fill="#0b49c9" opacity="0.75"/>
</svg>
